<?xml version="1.0" standalone="no"?>
<!DOCTYPE svg PUBLIC "-//W3C//DTD SVG 20010904//EN"
 "http://www.w3.org/TR/2001/REC-SVG-20010904/DTD/svg10.dtd">
<svg version="1.0" xmlns="http://www.w3.org/2000/svg"
 width="600.000000pt" height="600.000000pt" viewBox="0 0 600.000000 600.000000"
 preserveAspectRatio="xMidYMid meet">
<metadata>
Created by potrace 1.11, written by Peter Selinger 2001-2013
</metadata>
<g transform="translate(0.000000,600.000000) scale(0.100000,-0.100000)"
fill="#000000" stroke="none">
<path d="M990 4492 c0 -150 -2 -145 60 -179 19 -11 123 -74 230 -140 107 -66
341 -209 520 -318 179 -109 333 -203 342 -210 15 -10 4 -19 -75 -66 -50 -30
-99 -58 -109 -64 -10 -5 -108 -64 -218 -130 -110 -66 -208 -124 -218 -130 -9
-5 -55 -33 -102 -61 -47 -28 -163 -97 -257 -154 l-173 -103 0 -144 0 -145 23
14 c24 16 1077 651 1164 702 29 17 102 60 163 96 l110 65 -3 120 -2 119 -240
143 c-132 79 -305 182 -385 230 -459 272 -788 468 -807 481 l-23 14 0 -140z"/>
<path d="M2870 1490 l0 -130 1200 0 1200 0 0 130 0 130 -1200 0 -1200 0 0
-130z"/>
</g>
</svg>
